# xmcd
# 
# Track frame offsets:
#     150
#     11282
#     27485
#     38765
#     52980
#     64477
#     73780
#     90855
#     105845
#     124035
#     139125
#     149995
#     159737
#     170820
#     182537
#     197095
#     211965
#     223217
#     234812
#     242757
# 
# Disc length: 3568
# 
# Revision: 1
# Processed by: cddbd v1.5.2PL0 Copyright (c) Steve Scherf et al.
# Submitted via: fre:ac v1.1beta1pre5
# 
DISCID=210dee14
DTITLE=Various Artist - The Many Sides Of Country [CD4]
DYEAR=1998
DGENRE=Country
TTITLE0=Charley Pride and Jordanaires - Wings Of A Dove
TTITLE1=Dolly Parton - How Great Thou Art
TTITLE2=Jordanaires - He's Got The Whole World In His Hands
TTITLE3=Jimmy Dean - Peace In The Valley
TTITLE4=Loretta Lynn - I Believe
TTITLE5=Statler Brothers - Church In The Wildwood
TTITLE6=B J Thomas - Just A Closer Walk With Thee
TTITLE7=Leroy Van Dyke - Amazing Grace
TTITLE8=T Graham Brown - The Old Rugged Cross
TTITLE9=Jordanaires - Swing Low Sweet Chariot
TTITLE10=Tex Allen - Tiny Bubbles
TTITLE11=Jim Reeves - The Hawiian Wedding Song
TTITLE12=Slim Whitman - Pearly Shells
TTITLE13=Marty Robbins - Lovely Hula Hands
TTITLE14=Leroy Van Dyke - Red Sails In The Sunset
TTITLE15=Jerry Reed - She Got The Goldmine (I Got The Shaft)
TTITLE16=Little Jimmy Dickens - May The Bird Of Paradise Fly Up Your Nose
TTITLE17=Homer and Jethro - Hernando's Hideaway
TTITLE18=Roger Miller - Dang Me
TTITLE19=Ray Stevens - Shriner's Convention
EXTD=
EXTT0=
EXTT1=
EXTT2=
EXTT3=
EXTT4=
EXTT5=
EXTT6=
EXTT7=
EXTT8=
EXTT9=
EXTT10=
EXTT11=
EXTT12=
EXTT13=
EXTT14=
EXTT15=
EXTT16=
EXTT17=
EXTT18=
EXTT19=
PLAYORDER=
